<svg xmlns="http://www.w3.org/2000/svg" xmlns:xlink="http://www.w3.org/1999/xlink" width="500" zoomAndPan="magnify" viewBox="0 0 375 374.999991" height="500" preserveAspectRatio="xMidYMid meet" version="1.0"><defs><g/><clipPath id="4cea5c629f"><path d="M 133 151 L 217 151 L 217 264 L 133 264 Z M 133 151 " clip-rule="nonzero"/></clipPath><clipPath id="3131a2fbe0"><path d="M 191.128906 151.742188 L 216.820312 167.25 L 158.757812 263.453125 L 133.066406 247.949219 Z M 191.128906 151.742188 " clip-rule="nonzero"/></clipPath><clipPath id="a46fc9d400"><path d="M 191.128906 151.742188 L 216.820312 167.25 L 158.757812 263.453125 L 133.066406 247.949219 Z M 191.128906 151.742188 " clip-rule="nonzero"/></clipPath><clipPath id="f2a63795b6"><path d="M 135 167 L 193 167 L 193 224 L 135 224 Z M 135 167 " clip-rule="nonzero"/></clipPath><clipPath id="93d9e8e1b8"><path d="M 157.269531 167.066406 L 192.28125 188.195312 L 170.753906 223.863281 L 135.742188 202.734375 Z M 157.269531 167.066406 " clip-rule="nonzero"/></clipPath><clipPath id="1b155c6318"><path d="M 157.269531 167.066406 L 192.28125 188.195312 L 170.753906 223.863281 L 135.742188 202.734375 Z M 157.269531 167.066406 " clip-rule="nonzero"/></clipPath><clipPath id="00a6813075"><path d="M 176 170 L 231 170 L 231 224 L 176 224 Z M 176 170 " clip-rule="nonzero"/></clipPath><clipPath id="5ebc8ba1d8"><path d="M 195.921875 170.875 L 230.933594 192.003906 L 211.703125 223.867188 L 176.695312 202.738281 Z M 195.921875 170.875 " clip-rule="nonzero"/></clipPath><clipPath id="8375c7b176"><path d="M 195.921875 170.875 L 230.933594 192.003906 L 211.703125 223.867188 L 176.695312 202.738281 Z M 195.921875 170.875 " clip-rule="nonzero"/></clipPath></defs><rect x="-37.5" width="450" fill="#ffffff" y="-37.499999" height="449.999989" fill-opacity="1"/><rect x="-37.5" width="450" fill="#ffffff" y="-37.499999" height="449.999989" fill-opacity="1"/><g fill="#3d3b3a" fill-opacity="1"><g transform="translate(111.371623, 205.625543)"><g><path d="M 23.59375 -86.171875 C 23.59375 -81.609375 24.675781 -77.671875 26.84375 -74.359375 C 29.007812 -71.054688 31.660156 -68.296875 34.796875 -66.078125 C 37.929688 -63.859375 42.289062 -61.09375 47.875 -57.78125 C 53.800781 -54.25 58.382812 -51.316406 61.625 -48.984375 C 64.875 -46.648438 67.664062 -43.65625 70 -40 C 72.34375 -36.351562 73.515625 -31.96875 73.515625 -26.84375 C 73.515625 -21.488281 72.203125 -16.613281 69.578125 -12.21875 C 66.960938 -7.832031 63.0625 -4.359375 57.875 -1.796875 C 52.6875 0.765625 46.332031 2.046875 38.8125 2.046875 C 34.820312 2.046875 31.03125 1.617188 27.4375 0.765625 C 23.851562 -0.0859375 19.894531 -1.597656 15.5625 -3.765625 C 14.988281 -4.109375 14.613281 -4.503906 14.4375 -4.953125 C 14.269531 -5.410156 14.128906 -6.097656 14.015625 -7.015625 L 11.453125 -29.234375 L 11.453125 -29.40625 C 11.453125 -29.863281 11.738281 -30.117188 12.3125 -30.171875 C 12.882812 -30.234375 13.222656 -30.035156 13.328125 -29.578125 C 14.472656 -21.710938 17.492188 -14.875 22.390625 -9.0625 C 27.296875 -3.25 34.023438 -0.34375 42.578125 -0.34375 C 48.609375 -0.34375 53.703125 -1.992188 57.859375 -5.296875 C 62.023438 -8.609375 64.109375 -13.796875 64.109375 -20.859375 C 64.109375 -25.984375 62.96875 -30.398438 60.6875 -34.109375 C 58.414062 -37.816406 55.65625 -40.894531 52.40625 -43.34375 C 49.15625 -45.789062 44.738281 -48.664062 39.15625 -51.96875 C 33.6875 -55.164062 29.382812 -57.957031 26.25 -60.34375 C 23.113281 -62.738281 20.429688 -65.734375 18.203125 -69.328125 C 15.984375 -72.921875 14.875 -77.222656 14.875 -82.234375 C 14.875 -87.929688 16.328125 -92.773438 19.234375 -96.765625 C 22.140625 -100.753906 25.925781 -103.742188 30.59375 -105.734375 C 35.269531 -107.734375 40.289062 -108.734375 45.65625 -108.734375 C 51.914062 -108.734375 58.410156 -107.367188 65.140625 -104.640625 C 66.847656 -103.953125 67.703125 -102.976562 67.703125 -101.71875 L 69.25 -83.609375 C 69.25 -83.148438 68.929688 -82.921875 68.296875 -82.921875 C 67.671875 -82.921875 67.300781 -83.148438 67.1875 -83.609375 C 66.726562 -89.535156 64.503906 -94.832031 60.515625 -99.5 C 56.523438 -104.175781 50.828125 -106.515625 43.421875 -106.515625 C 36.585938 -106.515625 31.570312 -104.519531 28.375 -100.53125 C 25.1875 -96.539062 23.59375 -91.753906 23.59375 -86.171875 Z M 23.59375 -86.171875 "/></g></g></g><g fill="#3d3b3a" fill-opacity="1"><g transform="translate(174.927862, 289.117801)"><g><path d="M 23.59375 -86.171875 C 23.59375 -81.609375 24.675781 -77.671875 26.84375 -74.359375 C 29.007812 -71.054688 31.660156 -68.296875 34.796875 -66.078125 C 37.929688 -63.859375 42.289062 -61.09375 47.875 -57.78125 C 53.800781 -54.25 58.382812 -51.316406 61.625 -48.984375 C 64.875 -46.648438 67.664062 -43.65625 70 -40 C 72.34375 -36.351562 73.515625 -31.96875 73.515625 -26.84375 C 73.515625 -21.488281 72.203125 -16.613281 69.578125 -12.21875 C 66.960938 -7.832031 63.0625 -4.359375 57.875 -1.796875 C 52.6875 0.765625 46.332031 2.046875 38.8125 2.046875 C 34.820312 2.046875 31.03125 1.617188 27.4375 0.765625 C 23.851562 -0.0859375 19.894531 -1.597656 15.5625 -3.765625 C 14.988281 -4.109375 14.613281 -4.503906 14.4375 -4.953125 C 14.269531 -5.410156 14.128906 -6.097656 14.015625 -7.015625 L 11.453125 -29.234375 L 11.453125 -29.40625 C 11.453125 -29.863281 11.738281 -30.117188 12.3125 -30.171875 C 12.882812 -30.234375 13.222656 -30.035156 13.328125 -29.578125 C 14.472656 -21.710938 17.492188 -14.875 22.390625 -9.0625 C 27.296875 -3.25 34.023438 -0.34375 42.578125 -0.34375 C 48.609375 -0.34375 53.703125 -1.992188 57.859375 -5.296875 C 62.023438 -8.609375 64.109375 -13.796875 64.109375 -20.859375 C 64.109375 -25.984375 62.96875 -30.398438 60.6875 -34.109375 C 58.414062 -37.816406 55.65625 -40.894531 52.40625 -43.34375 C 49.15625 -45.789062 44.738281 -48.664062 39.15625 -51.96875 C 33.6875 -55.164062 29.382812 -57.957031 26.25 -60.34375 C 23.113281 -62.738281 20.429688 -65.734375 18.203125 -69.328125 C 15.984375 -72.921875 14.875 -77.222656 14.875 -82.234375 C 14.875 -87.929688 16.328125 -92.773438 19.234375 -96.765625 C 22.140625 -100.753906 25.925781 -103.742188 30.59375 -105.734375 C 35.269531 -107.734375 40.289062 -108.734375 45.65625 -108.734375 C 51.914062 -108.734375 58.410156 -107.367188 65.140625 -104.640625 C 66.847656 -103.953125 67.703125 -102.976562 67.703125 -101.71875 L 69.25 -83.609375 C 69.25 -83.148438 68.929688 -82.921875 68.296875 -82.921875 C 67.671875 -82.921875 67.300781 -83.148438 67.1875 -83.609375 C 66.726562 -89.535156 64.503906 -94.832031 60.515625 -99.5 C 56.523438 -104.175781 50.828125 -106.515625 43.421875 -106.515625 C 36.585938 -106.515625 31.570312 -104.519531 28.375 -100.53125 C 25.1875 -96.539062 23.59375 -91.753906 23.59375 -86.171875 Z M 23.59375 -86.171875 "/></g></g></g><g clip-path="url(#4cea5c629f)"><g clip-path="url(#3131a2fbe0)"><g clip-path="url(#a46fc9d400)"><path fill="#ffffff" d="M 191.128906 151.742188 L 216.820312 167.25 L 158.757812 263.453125 L 133.066406 247.949219 Z M 191.128906 151.742188 " fill-opacity="1" fill-rule="nonzero"/></g></g></g><g clip-path="url(#f2a63795b6)"><g clip-path="url(#93d9e8e1b8)"><g clip-path="url(#1b155c6318)"><path fill="#ffffff" d="M 157.269531 167.066406 L 192.28125 188.195312 L 170.753906 223.863281 L 135.742188 202.734375 Z M 157.269531 167.066406 " fill-opacity="1" fill-rule="nonzero"/></g></g></g><g clip-path="url(#00a6813075)"><g clip-path="url(#5ebc8ba1d8)"><g clip-path="url(#8375c7b176)"><path fill="#ffffff" d="M 195.921875 170.875 L 230.933594 192.003906 L 211.703125 223.867188 L 176.695312 202.738281 Z M 195.921875 170.875 " fill-opacity="1" fill-rule="nonzero"/></g></g></g><path stroke-linecap="butt" transform="matrix(0.918134, -1.307281, 1.305884, 0.917153, 122.425324, 276.197384)" fill="none" stroke-linejoin="miter" d="M 0.000377318 0.999169 L 116.888506 1.000219 " stroke="#3d3b3a" stroke-width="2" stroke-opacity="1" stroke-miterlimit="4"/><g fill="#3d3b3a" fill-opacity="1"><g transform="translate(58.81471, 249.345165)"><g><path d="M 5.46875 -50.953125 C 5.125 -50.953125 4.953125 -51.320312 4.953125 -52.0625 C 4.953125 -52.800781 5.125 -53.171875 5.46875 -53.171875 C 11.28125 -53.859375 15.15625 -57.5625 17.09375 -64.28125 C 19.03125 -71.007812 20 -79.726562 20 -90.4375 C 20 -100.238281 20.625 -107.445312 21.875 -112.0625 C 23.132812 -116.6875 25.300781 -119.820312 28.375 -121.46875 C 31.457031 -123.125 36.25 -123.953125 42.75 -123.953125 C 43.195312 -123.953125 43.421875 -123.609375 43.421875 -122.921875 C 43.421875 -122.242188 43.195312 -121.90625 42.75 -121.90625 C 38.414062 -121.90625 35.050781 -120.335938 32.65625 -117.203125 C 30.257812 -114.066406 28.945312 -109.59375 28.71875 -103.78125 C 28.488281 -89.757812 28.03125 -79.925781 27.34375 -74.28125 C 26.664062 -68.644531 25.15625 -64.203125 22.8125 -60.953125 C 20.476562 -57.703125 16.347656 -54.765625 10.421875 -52.140625 C 16.242188 -49.410156 20.347656 -46.363281 22.734375 -43 C 25.128906 -39.632812 26.664062 -35.128906 27.34375 -29.484375 C 28.03125 -23.847656 28.488281 -14.078125 28.71875 -0.171875 C 28.945312 5.640625 30.257812 10.113281 32.65625 13.25 C 35.050781 16.382812 38.414062 17.953125 42.75 17.953125 C 43.195312 17.953125 43.421875 18.289062 43.421875 18.96875 C 43.421875 19.65625 43.195312 20 42.75 20 C 36.132812 20 31.257812 19.171875 28.125 17.515625 C 24.988281 15.867188 22.847656 12.707031 21.703125 8.03125 C 20.566406 3.363281 20 -3.867188 20 -13.671875 C 20 -24.503906 19.03125 -33.253906 17.09375 -39.921875 C 15.15625 -46.585938 11.28125 -50.265625 5.46875 -50.953125 Z M 5.46875 -50.953125 "/></g></g></g><g fill="#3d3b3a" fill-opacity="1"><g transform="translate(267.257857, 251.248355)"><g><path d="M 42.90625 -50.953125 C 37.09375 -50.265625 33.21875 -46.585938 31.28125 -39.921875 C 29.34375 -33.253906 28.375 -24.503906 28.375 -13.671875 C 28.375 -3.867188 27.804688 3.363281 26.671875 8.03125 C 25.535156 12.707031 23.398438 15.867188 20.265625 17.515625 C 17.128906 19.171875 12.253906 20 5.640625 20 C 5.179688 20 4.953125 19.65625 4.953125 18.96875 C 4.953125 18.289062 5.179688 17.953125 5.640625 17.953125 C 9.972656 17.953125 13.332031 16.382812 15.71875 13.25 C 18.113281 10.113281 19.425781 5.640625 19.65625 -0.171875 C 19.882812 -14.078125 20.34375 -23.847656 21.03125 -29.484375 C 21.71875 -35.128906 23.253906 -39.632812 25.640625 -43 C 28.035156 -46.363281 32.140625 -49.410156 37.953125 -52.140625 C 32.023438 -54.765625 27.894531 -57.703125 25.5625 -60.953125 C 23.226562 -64.203125 21.71875 -68.644531 21.03125 -74.28125 C 20.34375 -79.925781 19.882812 -89.757812 19.65625 -103.78125 C 19.425781 -109.59375 18.113281 -114.066406 15.71875 -117.203125 C 13.332031 -120.335938 9.972656 -121.90625 5.640625 -121.90625 C 5.179688 -121.90625 4.953125 -122.242188 4.953125 -122.921875 C 4.953125 -123.609375 5.179688 -123.953125 5.640625 -123.953125 C 12.140625 -123.953125 16.925781 -123.125 20 -121.46875 C 23.082031 -119.820312 25.25 -116.6875 26.5 -112.0625 C 27.75 -107.445312 28.375 -100.238281 28.375 -90.4375 C 28.375 -79.726562 29.34375 -71.007812 31.28125 -64.28125 C 33.21875 -57.5625 37.09375 -53.859375 42.90625 -53.171875 C 43.25 -53.171875 43.421875 -52.800781 43.421875 -52.0625 C 43.421875 -51.320312 43.25 -50.953125 42.90625 -50.953125 Z M 42.90625 -50.953125 "/></g></g></g></svg>